HIERARCHY
ROOT Hip
{
    OFFSET 0.0 0.0 0.0
    CHANNELS 6 Xposition Yposition Zposition Zrotation Xrotation Yrotation
    JOINT RightHip
    {
        OFFSET -10.492594718933105 0.0 0.0
        CHANNELS 3 Zrotation Xrotation Yrotation
        JOINT RightKnee
        {
            OFFSET 0.0 0.0 -34.48759460449219
            CHANNELS 3 Zrotation Xrotation Yrotation
            JOINT RightAnkle
            {
                OFFSET 0.0 0.0 -41.24034881591797
                CHANNELS 3 Zrotation Xrotation Yrotation
                End Site
                {
                    OFFSET 0.0 -16.496139526367188 0.0
                }
            }
        }
    }
    JOINT LeftHip
    {
        OFFSET 10.492594718933105 0.0 0.0
        CHANNELS 3 Zrotation Xrotation Yrotation
        JOINT LeftKnee
        {
            OFFSET 0.0 0.0 -34.48759460449219
            CHANNELS 3 Zrotation Xrotation Yrotation
            JOINT LeftAnkle
            {
                OFFSET 0.0 0.0 -41.24034881591797
                CHANNELS 3 Zrotation Xrotation Yrotation
                End Site
                {
                    OFFSET 0.0 -16.496139526367188 0.0
                }
            }
        }
    }
    JOINT Spine
    {
        OFFSET 0.0 0.0 37.447322845458984
        CHANNELS 3 Zrotation Xrotation Yrotation
        JOINT Thorax
        {
            OFFSET 0.0 0.0 11.782642364501953
            CHANNELS 3 Zrotation Xrotation Yrotation
            JOINT Neck
            {
                OFFSET 0.0 0.0 0.0
                CHANNELS 3 Zrotation Xrotation Yrotation
                End Site
                {
                    OFFSET 0.0 0.0 0.0
                }
            }
            JOINT LeftShoulder
            {
                OFFSET 17.508464813232422 0.0 0.0
                CHANNELS 3 Zrotation Xrotation Yrotation
                JOINT LeftElbow
                {
                    OFFSET 26.992279052734375 0.0 0.0
                    CHANNELS 3 Zrotation Xrotation Yrotation
                    JOINT LeftWrist
                    {
                        OFFSET 23.191585540771484 0.0 0.0
                        CHANNELS 3 Zrotation Xrotation Yrotation
                        End Site
                        {
                            OFFSET 9.276634216308594 0.0 0.0
                        }
                    }
                }
            }
            JOINT RightShoulder
            {
                OFFSET -17.508464813232422 0.0 0.0
                CHANNELS 3 Zrotation Xrotation Yrotation
                JOINT RightElbow
                {
                    OFFSET -26.992279052734375 0.0 0.0
                    CHANNELS 3 Zrotation Xrotation Yrotation
                    JOINT RightWrist
                    {
                        OFFSET -23.191585540771484 0.0 0.0
                        CHANNELS 3 Zrotation Xrotation Yrotation
                        End Site
                        {
                            OFFSET -9.276634216308594 0.0 0.0
                        }
                    }
                }
            }
        }
    }
}
MOTION
Frames: 7
Frame Time: 0.03333333333333333
-24.81189727783203 46.81803894042969 -38.956146240234375 116.88423990474361 -65.56045741683114 113.25800883547691 1.8244092215895782 -39.05138973267161 11.331242228272316 19.415717348946895 62.835021553422756 -23.250648468496728 -3.1805546814635164e-15 -6.361109362927033e-15 1.590277340731758e-15 1.0066023766604189 -42.86730136284458 -5.795050353185936 -25.497403795213753 71.00753537767238 32.49007491245567 7.951386703658792e-16 6.361109362927033e-15 -7.951386703658792e-16 0.511209420693231 -17.65717014580564 3.68453479718434 0.9636829399527869 -7.19356826495131e-06 3.040967086410179e-06 -18.2568470943363 6.618183052208075 14.405719434939362 -47.698258637191266 40.125776477057805 97.64492442406232 -58.56293574178719 6.030372434588209e-07 7.669048615669409e-07 0.0 0.0 6.3611093629270335e-15 88.26336956680778 19.399351935290525 -124.95138558471999 15.933248771137649 7.52698469008021e-09 -2.203259824402863e-08 0.0 0.0 7.951386703658792e-16
-24.773582458496094 46.827362060546875 -38.990203857421875 116.75338212409818 -65.52854449343894 113.05937404614568 1.824672382545301 -39.1261927515318 11.579090843841197 19.587408437674352 62.9089201868199 -23.447683450388592 1.5902773407317588e-15 5.9635400277440935e-15 -4.770832022195275e-15 1.0520903307511775 -42.891161254316486 -5.573376022836603 -24.344195331965352 70.98833802989101 31.335034264278725 -2.385416011097638e-15 -6.3611093629270335e-15 -3.975693351829396e-15 0.523568768285389 -17.73523914057556 3.6154036307389297 0.9194267033503416 -9.429411271450766e-07 -5.392336815634322e-07 -18.181565646053304 6.527494365402196 14.38013050130463 -47.579150371317404 40.166816943144696 97.76572685547383 -58.60439163883759 8.531673905959132e-07 4.096317652274385e-06 0.0 0.0 0.0 87.27019583844427 20.0464535526608 -124.71957397425165 15.361493159613559 2.075185463661278e-06 -1.001829716299379e-06 -6.3611093629270335e-15 -3.9756933518293955e-16 -7.951386703658792e-16
-24.745223999023438 46.83447265625 -39.014739990234375 116.61568951973126 -65.55988465121615 112.87886080794671 1.8258975036491485 -39.28825808772579 11.73745435710149 19.979728552025904 63.17582028857198 -23.769988245634828 -1.590277340731758e-15 6.361109362927033e-15 -1.590277340731758e-15 1.1027446071459233 -42.9600483850933 -5.491574835142982 -23.938838724628244 70.92290998622181 30.971942532157083 7.95138670365879e-16 -6.559894030518502e-15 4.551840869864226e-32 0.5352446754193788 -17.843526607717425 4.06504352358279 0.9376884906430835 7.012906403455548e-06 -1.749607903733996e-06 -17.927747177733337 6.758495882813373 13.906436018278583 -47.20591207444848 40.55573344804546 97.37983197429439 -58.437350268227625 1.0627221205392968e-06 2.1607308115258118e-06 -6.3611093629270335e-15 0.0 0.0 86.2342447601354 20.141891172877223 -124.47983363797204 14.796638953173947 1.1357218746066966e-06 2.669166075175626e-07 0.0 1.987846675914698e-16 0.0
-24.72216033935547 46.84117126464844 -39.0413818359375 116.69739491704816 -65.8117818896227 112.90556736962156 1.9524947752483 -39.51717025804637 11.795908393920318 20.146095544864018 63.71140494613013 -23.778262070962924 -1.5902773407317584e-15 6.3611093629270335e-15 8.827812596100317e-32 1.190495238684755 -42.99335214129674 -5.55956822028172 -24.165719995943135 70.68231065616531 31.27439237373198 -2.3854160110976376e-15 -1.6552148617688095e-32 7.951386703658792e-16 0.576055691548313 -17.936121137541065 4.445659169191005 1.169135943397717 -2.474995957440025e-06 5.381044432647554e-07 -17.66877728313414 6.9891512449704525 13.403425087118386 -46.666319673743715 40.96434026492964 96.8759778390555 -58.348736684706935 -3.5539426274151445e-06 5.537223908068741e-07 0.0 -1.590277340731758e-15 0.0 85.23773994789096 20.18815526126639 -124.24098414869799 14.398950388485149 -1.0302222383852746e-07 -9.13703048852133e-08 -6.3611093629270335e-15 9.93923337957349e-16 5.517382872562698e-32
-24.707412719726562 46.83869171142578 -39.06520080566406 116.48224512073683 -65.81087735516202 112.69680119815386 2.040906823576231 -39.684580567495075 11.965061479980013 20.78529675538179 64.28455664370202 -24.36325438401234 -5.517382872562698e-33 -3.975693351829396e-16 -1.5902773407317584e-15 1.1243568714862329 -43.11933843248743 -5.5613382483764155 -23.94169531157233 70.74782748869973 30.987380463332432 -7.951386703658792e-16 0.0 0.0 0.5781687339258023 -17.92622512323665 4.828097883484354 1.16339326252729 -5.346000301065121e-06 -8.585204532421624e-07 -17.365221354750954 7.187000067633505 12.816680766968224 -46.010972659748255 41.28817893274976 96.2577528131273 -58.29932453306526 1.1683550443672969e-06 3.069112340795098e-06 0.0 0.0 0.0 83.7801919728153 20.555638046087616 -123.82090424480815 14.0910788920307 -2.5456028303755436e-07 -3.61988731656291e-07 0.0 7.951386703658792e-16 0.0
-24.704620361328125 46.822265625 -39.037567138671875 116.18219018326943 -65.56431090469341 112.48056709530631 1.8858520965305758 -39.76957294288841 11.998949635519937 21.50084734423764 64.87252294345397 -25.021364599060263 -3.1805546814635164e-15 0.0 0.0 1.0536733424783162 -43.22918753959082 -5.521932218061202 -23.040448045949347 70.91863870513501 29.945569558324262 0.0 0.0 0.0 0.534938869893328 -17.861190823803867 5.168623002256049 0.9411295088596765 7.141119117783734e-07 -2.2574178637815445e-07 -17.056554287765216 7.408128390699168 12.240607918426742 -45.56735887425045 41.57001178538707 95.80473356026003 -58.36916239088076 -9.163889084366156e-06 -1.6010831210416741e-06 0.0 -3.1805546814635168e-15 0.0 82.25439325422936 21.001270618592606 -123.40354158987805 13.79289775994177 1.889174127095627e-08 -1.1822918874823949e-08 6.361109362927033e-15 0.0 0.0
-24.739219665527344 46.79322052001953 -39.013671875 115.8145628923515 -65.26852070826146 112.23469321905134 1.7253028693449532 -39.91331753033354 11.961832093406693 22.553999169767316 65.3667200650962 -26.023592226454934 1.5902773407317588e-15 2.2069531490250793e-32 1.5902773407317588e-15 0.8978634793690529 -43.42829078448185 -5.6239089919893415 -22.88436253930586 71.11054704880101 29.613383753631386 -1.5902773407317584e-15 -6.3611093629270335e-15 -8.827812596100317e-32 0.47153412495362124 -17.760721233773914 5.282344505694158 0.6831929720750477 -8.014914112932988e-07 1.0032975648186394e-06 -16.859410807040202 7.498804766839987 11.870027146089138 -45.50427907370378 41.589345523582814 95.63556536519754 -58.32853533981873 -4.047951523275849e-06 -1.946858328471493e-06 0.0 0.0 6.3611093629270335e-15 80.90763568403817 21.592457401695537 -122.98518914808758 13.563433959860758 2.3251342189898527e-07 -8.983985356971623e-08 6.361109362927033e-15 0.0 0.0
